<svg width="100" height="24" viewBox="0 0 100 24" fill="none" xmlns="http://www.w3.org/2000/svg">
<g clip-path="url(#clip0_2044_151)">
<path d="M69.9704 0.280136C69.7677 0.563695 69.5546 0.840421 69.3347 1.1069C67.6988 3.07131 65.5475 4.47885 62.7363 4.47885C59.9251 4.47885 57.7737 3.07473 56.1379 1.1069C55.9179 0.840421 55.7049 0.563695 55.5021 0.280136H50.2749V23.7199H56.1379V8.26761C57.9971 9.44284 60.1794 10.1671 62.7363 10.1671C65.2931 10.1671 67.4754 9.44284 69.3347 8.26761V23.7199H75.1976V0.280136H69.9704Z" fill="#94433B"/>
<path d="M14.2759 0.280136V9.64099C13.0696 8.84498 11.6262 8.38377 10.0694 8.38377C8.51261 8.38377 7.06921 8.84839 5.86295 9.64099V0.280136H0V23.7199H5.86295V15.9169C6.95237 14.8715 8.43701 14.2292 10.0694 14.2292C11.7018 14.2292 13.1865 14.8715 14.2759 15.9169V23.7199H20.1388V0.280136H14.2759Z" fill="#94433B"/>
<path d="M35.322 0C28.6549 0 23.2525 5.37395 23.2525 11.9983C23.2525 18.6226 28.6583 23.9966 35.322 23.9966C41.9857 23.9966 47.3916 18.6226 47.3916 11.9983C47.3916 5.37395 41.9892 0 35.322 0ZM35.322 18.2024C31.8751 18.2024 29.0811 15.4249 29.0811 11.9983C29.0811 8.57167 31.8751 5.79416 35.322 5.79416C38.769 5.79416 41.563 8.57167 41.563 11.9983C41.563 15.4249 38.769 18.2024 35.322 18.2024Z" fill="#94433B"/>
<path d="M93.1439 0.280136H84.5385L77.6823 23.7199H83.1569C83.3631 23.1732 83.6449 22.6608 83.992 22.203C85.0986 20.7374 86.8616 19.791 88.8446 19.791C90.8275 19.791 92.5906 20.7374 93.6972 22.203C94.0443 22.6608 94.3261 23.1732 94.5323 23.7199H100.007L93.1439 0.280136ZM88.8412 13.9422C87.9408 13.9422 87.0781 14.0994 86.274 14.3829L88.8412 5.61309L91.4083 14.3829C90.6076 14.0994 89.7416 13.9422 88.8412 13.9422Z" fill="#94433B"/>
</g>
<defs>
<clipPath id="clip0_2044_151">
<rect width="100" height="24" fill="white"/>
</clipPath>
</defs>
</svg>
